<svg width="28" height="17" fill="none" xmlns="http://www.w3.org/2000/svg"><path fill-rule="evenodd" clip-rule="evenodd" d="M27.2 8.6a.852.852 0 00-.284-.628 1.019 1.019 0 00-.687-.26H3.318l6.114-5.593a.853.853 0 00.285-.63.853.853 0 00-.285-.628A1.02 1.02 0 008.744.6a1.02 1.02 0 00-.688.26L.286 7.97a.888.888 0 00-.212.29.824.824 0 000 .68c.05.109.12.207.211.29l7.771 7.11a1.043 1.043 0 001.376 0 .853.853 0 00.285-.63.853.853 0 00-.285-.63L3.318 9.49h22.91c.258 0 .505-.094.688-.26a.852.852 0 00.284-.63z" fill="#000"/></svg>