<svg width="28" height="17" fill="none" xmlns="http://www.w3.org/2000/svg"><path fill-rule="evenodd" clip-rule="evenodd" d="M.8 8.4c0 .236.102.462.285.628.182.167.429.26.686.26h22.911l-6.114 5.593a.853.853 0 00-.285.63c0 .235.103.462.285.628.183.167.43.261.688.261.258 0 .505-.094.688-.26l7.77-7.11a.887.887 0 00.212-.29.823.823 0 000-.68.886.886 0 00-.211-.29L19.944.66a.983.983 0 00-.316-.192A1.052 1.052 0 0019.256.4a1.02 1.02 0 00-.688.26.853.853 0 00-.285.63c0 .236.103.462.285.63l6.114 5.591H1.772c-.258 0-.505.094-.687.26A.852.852 0 00.8 8.4z" fill="#000"/></svg>