<svg width="433" height="433" fill="none" xmlns="http://www.w3.org/2000/svg"><path d="M216.5 0l187.495 108.25v216.5L216.5 433 29.006 324.75v-216.5L216.5 0z" fill="#FFC700"/><path d="M204.982 129.929c-25.111.261-53.831.729-58.237.938l-3.235.182-2.115 2.238c-2.365 2.525-6.496 7.679-15.306 19.028-3.285 4.217-8.138 10.413-10.826 13.77-2.663 3.358-5.301 6.638-5.824 7.341l-.995 1.223-1.27-2.629c-1.891-3.878-5.649-10.151-7.068-11.713-1.294-1.484-3.36-2.187-6.993-2.421-5.326-.364-13.663 1.38-18.019 3.748-1.767.963-3.11 2.447-4.206 4.582-.672 1.379-.722 3.956-.1 5.57.598 1.536 1.967 3.722 3.186 5.128 2.215 2.525 6.147 3.202 19.736 3.462l8.935.182-3.086 2.681c-1.693 1.484-6.023 5.102-9.632 8.044-8.138 6.637-8.362 6.846-8.86 8.668-1.269 4.633-1.642 12.859-1.866 41.362-.224 25.588-.2 26.082.945 28.789l-.503-1.366v10.607c-.1 3.254.124 8.037 0 10.874l1.275 4.77 2.265 3.749 2.264 3.774h29.866l1.792-1.562 1.817-1.562.174-7.626c.249-11.141.672-15.671 1.593-16.842.398-.521.523-.521 3.908-.26 42.906 3.227 58.062 4.06 86.608 4.685 33.997.729 70.307-.338 101.964-3.045l1.942-.157.348.885c.523 1.302.846 4.139 1.145 10.126.622 12.156.796 13.354 2.09 14.135.623.364 20.433.598 26.406.312l3.733-.208 2.041-2.265 2.041-2.265.274-11.14c.199-8.278.373-11.532.647-12.599.448-1.77.472-8.148.099-26.837-.672-33.657-.746-38.421-.746-42.976v-4.868l-.797-.833c-.448-.442-3.011-2.603-5.674-4.763-4.853-3.957-8.313-7.003-11.573-10.178l-1.742-1.692 5.351-.026c7.889 0 14.882-.651 18.815-1.718 2.663-.703 3.932-1.536 5.326-3.436 3.534-4.894 3.832-8.2 1.12-11.818-1.369-1.848-2.912-2.785-6.347-3.957-4.604-1.561-7.74-2.082-12.692-2.108-4.953 0-6.496.338-8.213 1.77-.548.469-3.485 3.748-6.496 7.341-3.036 3.566-5.6 6.533-5.699 6.585-.1.052-1.916-2.369-4.007-5.336-13.987-19.887-23.917-33.189-27.327-36.651-1.194-1.197-1.393-1.301-2.961-1.483-2.514-.313-61.696-.443-85.29-.209zm103.134 27.957l16.998 23.271 1.917 1.249c10.328 6.768 20.109 14.499 21.652 17.102.274.469.572 1.614.697 2.551l.224 1.718-3.733.417c-3.858.442-8.786 1.379-12.096 2.29-14.858 4.113-24.539 9.319-31.408 16.842-2.812 3.124-5.824 7.783-5.326 8.304.398.442 6.023.937 10.727.937 7.118.026 11.871-.729 18.043-2.838 7.939-2.707 15.729-7.939 19.512-13.093 1.369-1.874 1.817-2.811 2.165-4.503.324-1.588.797-2.629 1.618-3.67.423-.521.647-.625.722-.391.323.911.622 19.054.622 36.911v19.939l-.797.495c-1.543.911-3.733 2.811-5.649 4.842l-1.891 2.056-1.867.26c-8.113 1.12-26.331 1.9-56.121 2.369-21.702.338-89.272.156-98.182-.26-3.21-.13-8.586-.391-11.946-.547-19.91-.911-41.686-2.577-61.97-4.711-14.758-1.536-24.14-2.734-24.14-3.072 0-.078-1.07-2.213-2.365-4.711l-2.364-4.556v-19.262c0-17.362.274-31.497.622-31.835.398-.443 3.186 1.9 4.106 3.436.274.468.623 1.484.772 2.264.498 2.473 1.618 4.295 4.455 7.263 6.396 6.69 15.604 11.167 26.629 12.937 3.908.625 12.345.625 16.675 0 1.692-.26 3.136-.495 3.186-.547.124-.156-.921-2.238-1.941-3.8-4.356-6.664-12.444-12.859-21.902-16.738-8.76-3.618-19.088-6.143-27.5-6.741-2.315-.157-4.256-.313-4.306-.339-.15-.104.548-2.915.896-3.644 1.17-2.395 3.733-4.607 11.872-10.23 9.581-6.612 9.805-6.82 13.937-12.156 4.579-5.961 12.07-14.993 26.704-32.225l8.785-10.334 18.591-.027c10.229-.026 32.304-.13 49.078-.208 16.775-.104 41.015-.208 53.882-.234l23.394-.052 17.023 23.271z" fill="#000"/><path d="M217.977 139.372c-42.06.365-66.852-.748-70.361.189-1.494.416-7.541 7.106-20.732 22.958-8.287 9.97-14.858 18.013-14.858 18.196 0 2.056 69.263 6.729 169.759 4.49 0 0 29.101.156 35.389-2.167 6.289-2.323 2.614-3.547 2.614-3.547l-2.614-4.061c-15.156-20.746-26.283-33.819-29.27-36.058h-23.309s-34.224-.104-46.618 0zm-26.231 82.21c-11.523.338-20.507 1.041-25.634 1.952-5.052.911-4.082 1.067 17.869 3.097 21.826 2.005 27.874 2.734 30.96 3.645 1.294.39 1.319.416 2.29 2.551.547 1.171 1.468 3.722 2.041 5.648.796 2.629 1.095 3.358 1.244 2.994.124-.287.722-1.927 1.369-3.645 1.244-3.384 2.513-5.987 3.285-6.715.722-.677.348-.625 30.288-3.957 12.095-1.354 20.059-2.369 21.154-2.681l.747-.234-.747-.157c-1.518-.338-9.532-1.015-17.296-1.483-18.965-1.12-49.079-1.588-67.57-1.015z" fill="#000"/></svg>