<svg width="361" height="38" fill="none" xmlns="http://www.w3.org/2000/svg"><g clip-path="url(#clip0_302_114)" fill="#fff"><path d="M335.901 21.156c4.8-2.306 8.9-6.517 8.6-12.233-.3-4.912-4.9-10.427-10.3-8.622-5.4 1.805-3.8 9.324 1.3 10.227 2.1.4 4.6-.802 4-3.209-.5-2.105-2.5-2.807-3.9-1.002-.4.5.5 1.203.9.802.4-.301.9-.301 1.3.1.2.3.3.602.2.902-.5.802-1.3 1.204-2.2 1.103-2-.2-3.5-2.005-3.3-4.01v-.301c.4-2.607 3.3-3.81 5.7-3.008 5.7 1.805 5.1 9.325 2.2 13.235-1.7 2.105-3.9 3.71-6.4 4.712-6.4-4.11-14.9-3.91-21.7-1.002-.3.1-.2.4 0 .701 0 .1.1.201.1.301 2 2.306 5.6 3.108 8.5 3.51 3.7.5 7.5.2 11.2-.803.8-.2 1.6-.501 2.3-.802 1.4 1.103 2.5 2.507 3.4 4.01 1.4 2.106 1.6 4.713.7 7.02-1 2.205-3.5 4.01-6 3.308-1.9-.501-3-2.507-2.5-4.412.3-1.002 1-1.804 2-2.306 1.2-.601 3.1-.3 3.1 1.404 0 .902-.8 2.005-1.9 1.003-.4-.301-1.4-.301-1.1.4.4 1.404 1.9 2.106 3.2 1.705.3-.1.6-.3.9-.501 1.2-1.003 1-2.807.3-4.01-2.7-4.513-8.9-1.104-8.5 3.508.5 6.016 8.7 6.518 11.7 2.206 3.4-4.712.2-10.527-3.8-13.936zm-8.3.4c-2.5.402-5 .402-7.4 0-2-.5-3.9-1.202-5.8-2.105 5.9-1.404 12.9-1.905 18.1 1.003-1.5.501-3.2.902-4.9 1.103z"/><path d="M359.7 20.053c-4.4-1.304-8.8-.301-13.2-.1 1.3-.702 2.5-1.505 3.6-2.507 1.4-1.203 3.7-3.008 2.4-4.913-.2-.3-.6-.501-1-.401-4.2 1.003-8.6 5.113-10.9 8.623-.1.1-.1.3 0 .5v.101c.4 5.013 5.8 8.924 10.3 10.027.6.1 1-.1.9-.802-.6-3.209-2.5-5.916-5.2-7.72h6.1c2.6.1 5.1-.402 7.5-1.304.9-.2 0-1.304-.5-1.504zm-8.8-5.816c-1.1 1.204-2.3 2.206-3.6 3.209-1.1.802-2.4 1.404-3.7 1.905 2.1-2.206 4.5-4.01 7.3-5.113zm-1.2 15.24c-3.3-1.203-5.3-3.509-7-6.517 3.4.702 6 3.209 7 6.518zm1.6-8.221c1.3-.1 2.7-.2 4-.2-1.4.2-2.7.2-4 .2zM20.9 35.193c3 4.311 11.1 3.81 11.7-2.206.4-4.612-5.8-8.021-8.5-3.51-.7 1.204-.9 3.009.3 4.011 1.1.903 2.7.802 3.6-.3.2-.302.4-.602.5-.903.3-.702-.8-.802-1.1-.401-1.1 1.002-1.9-.1-1.9-1.003 0-1.604 1.9-2.005 3.1-1.403 1.8.802 2.6 2.907 1.8 4.712-.4 1.003-1.3 1.705-2.3 2.005-2.5.702-5-1.103-6-3.309-.9-2.306-.7-4.912.7-7.018.9-1.504 2-2.908 3.4-4.01.8.3 1.5.601 2.3.802 3.6 1.002 7.4 1.303 11.2.802 2.8-.401 6.5-1.304 8.4-3.51.1-.1.1-.2.2-.3.2-.2.3-.502 0-.702-6.8-3.008-15.3-3.209-21.7 1.003-2.5-1.003-4.7-2.607-6.3-4.713-2.9-3.81-3.5-11.43 2.2-13.235 2.4-.802 5.3.401 5.7 3.008.3 2.005-1 3.91-3 4.211h-.3c-.9.1-1.7-.3-2.2-1.103-.2-.501 0-1.002.5-1.203.3-.1.7-.1.9.2.4.402 1.3-.3.9-.801-1.3-1.805-3.4-1.103-3.8 1.002-.6 2.507 1.9 3.61 4 3.209 5-.903 6.5-8.422 1.3-10.227C21.3-1.504 16.3 4.11 16 9.024c-.3 5.715 3.8 9.926 8.6 12.232-3.9 3.309-7.1 9.124-3.7 13.937zm7.1-14.84c5.3-2.907 12.2-2.406 18.1-1.002-1.9.902-3.8 1.604-5.8 2.105-2.5.402-5 .402-7.4 0-1.6-.2-3.3-.5-4.9-1.102z"/><path d="M.3 21.657c2.4.902 5 1.404 7.5 1.303 2 .1 4.1.1 6.1 0-2.7 1.805-4.5 4.613-5.2 7.72-.1.602.3.903.9.803 4.5-1.103 9.9-5.114 10.3-10.027v-.1c.1-.1.1-.3 0-.501-2.3-3.51-6.7-7.62-10.9-8.623-.4 0-.8.1-1 .401-1.3 1.905 1 3.71 2.4 4.913 1.1 1.003 2.3 1.805 3.6 2.507-4.3-.301-8.7-1.203-13.1 0-.4.2-1.4 1.303-.6 1.604zM17 19.351c-1.3-.501-2.5-1.103-3.7-1.905-1.3-.902-2.5-2.005-3.7-3.108 2.8 1.002 5.3 2.807 7.4 5.013zm.8 3.61c-1.7 3.007-3.7 5.313-7 6.517 1-3.31 3.7-5.816 7-6.518zM5.4 21.054c1.3 0 2.7.1 4 .2-1.4 0-2.7 0-4-.2zm51.8-.299c31.4.701 62.901.2 94.301.2l90.5.1h54.2c1.3 0 .5-1.804-.5-1.804h-.3c-1.3 0-.5 1.804.5 1.804 2.7 0 5.3 0 8-.1 1.3 0 .3-2.005-.8-1.504.3-.1.4-.1.1-.1-1.2 0-.4 1.604.4 1.604.2 0 .2 0 0 0 1.2.401.9-1.504-.2-1.504-2.7-.1-5.4-.1-8-.1-1.3 0-.5 1.805.5 1.805h.3c1.3 0 .5-1.805-.5-1.805-61.6 0-123.2 0-184.7.1-18.1 0-36.1-.2-54.2.2-.8-.1-.3 1.104.4 1.104z"/></g><defs><clipPath id="clip0_302_114"><path fill="#fff" d="M0 0h360.6v38H0z"/></clipPath></defs></svg>