<svg width="213" height="62" fill="none" xmlns="http://www.w3.org/2000/svg"><path d="M30.774 0l26.651 15.387v30.774l-26.65 15.387L4.122 46.161V15.387L30.774 0z" fill="#FFC700"/><path d="M29.137 18.469c-3.57.037-7.652.103-8.278.133l-.46.026-.3.318c-.337.359-.924 1.091-2.176 2.705-.467.6-1.157 1.48-1.54 1.957-.378.477-.753.944-.827 1.043l-.141.174-.18-.373c-.27-.552-.804-1.443-1.006-1.665-.183-.211-.477-.311-.994-.345-.757-.051-1.942.197-2.56.533-.252.137-.443.348-.599.652-.095.196-.102.562-.014.791.085.219.28.53.453.73.315.358.874.454 2.805.491l1.27.026-.438.381c-.24.211-.856.726-1.37 1.144-1.156.943-1.188.973-1.259 1.232-.18.658-.233 1.828-.265 5.88-.032 3.636-.028 3.707.134 4.091l-.071-.194v1.508c-.014.462.017 1.142 0 1.546l.18.678.323.533.322.536h4.245l.255-.222.258-.222.025-1.084c.035-1.584.095-2.227.226-2.394.057-.074.074-.074.555-.037 6.1.459 8.254.577 12.311.666 4.833.104 9.994-.048 14.494-.433l.276-.022.05.126c.074.185.12.588.162 1.439.089 1.728.113 1.898.297 2.01.089.05 2.905.084 3.754.044l.53-.03.29-.322.29-.322.04-1.584c.028-1.176.053-1.639.091-1.79.064-.252.068-1.159.015-3.815-.096-4.784-.107-5.461-.107-6.109v-.692l-.113-.118a21.55 21.55 0 00-.806-.677 23.999 23.999 0 01-1.645-1.447l-.248-.24.76-.004c1.122 0 2.116-.093 2.675-.244.379-.1.559-.219.757-.489.503-.695.545-1.165.16-1.68-.195-.262-.415-.395-.903-.562a5.031 5.031 0 00-1.804-.3c-.704 0-.923.048-1.167.252-.078.067-.496.533-.924 1.043-.431.507-.796.929-.81.936-.014.008-.272-.336-.57-.758-1.987-2.827-3.399-4.718-3.884-5.21-.17-.17-.198-.185-.42-.21-.358-.045-8.77-.064-12.124-.03zm14.66 3.973l2.416 3.308.272.178c1.468.962 2.859 2.06 3.078 2.43.04.067.081.23.1.363l.031.245-.53.059a12.69 12.69 0 00-1.72.326c-2.112.584-3.488 1.324-4.464 2.393-.4.444-.828 1.107-.757 1.18.056.064.856.134 1.524.134 1.012.004 1.688-.104 2.565-.403 1.129-.385 2.236-1.129 2.774-1.861.194-.267.258-.4.307-.64a1.15 1.15 0 01.23-.522c.06-.074.092-.09.103-.056.046.13.088 2.709.088 5.247v2.834l-.113.07c-.22.13-.53.4-.803.689l-.269.292-.265.037c-1.153.159-3.743.27-7.977.337-3.085.048-12.69.022-13.956-.037-.457-.019-1.22-.056-1.698-.078-2.83-.13-5.926-.366-8.809-.67-2.098-.218-3.431-.388-3.431-.436 0-.011-.153-.315-.337-.67l-.336-.648v-2.738c0-2.468.04-4.477.089-4.525.056-.063.453.27.583.489.04.066.089.21.11.322.07.351.23.61.633 1.032.91.95 2.219 1.587 3.786 1.839.555.089 1.754.089 2.37 0 .24-.037.446-.07.453-.078.017-.022-.131-.318-.276-.54-.62-.947-1.77-1.828-3.113-2.38-1.246-.514-2.714-.872-3.91-.958a15.659 15.659 0 01-.611-.048c-.022-.014.077-.414.127-.518.166-.34.53-.655 1.687-1.454 1.362-.94 1.394-.97 1.981-1.728.651-.847 1.716-2.13 3.796-4.58l1.249-1.47 2.643-.003c1.454-.004 4.591-.018 6.976-.03 2.384-.014 5.83-.03 7.659-.033l3.325-.007 2.42 3.307z" fill="#000"/><path d="M30.984 19.81c-5.979.053-9.503-.105-10.001.028-.213.059-1.072 1.01-2.947 3.263-1.178 1.417-2.112 2.56-2.112 2.587 0 .292 9.845.956 24.13.638 0 0 4.136.022 5.03-.308.894-.33.372-.504.372-.504l-.372-.578c-2.154-2.949-3.736-4.807-4.16-5.125H37.61s-4.865-.015-6.627 0zm-3.728 11.687c-1.638.048-2.916.148-3.644.277-.718.13-.58.152 2.54.44 3.102.285 3.962.389 4.4.518.184.056.188.06.326.363.078.166.209.53.29.803.113.374.156.477.177.425.018-.04.103-.273.195-.518.176-.48.357-.85.467-.954.102-.096.049-.089 4.305-.563 1.72-.192 2.851-.336 3.007-.38l.106-.034-.106-.022c-.216-.048-1.355-.145-2.459-.211-2.696-.16-6.976-.226-9.604-.144z" fill="#000"/><path d="M75.897 17.578c-.052-.522-.275-.928-.668-1.217-.392-.29-.926-.434-1.6-.434-.457 0-.843.065-1.158.194-.316.125-.557.3-.726.525a1.261 1.261 0 00-.246.764 1.09 1.09 0 00.15.622c.111.177.265.33.459.46.194.125.419.235.673.33.255.09.527.168.816.233l1.192.285c.579.13 1.11.302 1.593.518a4.84 4.84 0 011.256.796c.355.316.629.687.823 1.114.199.428.3.918.304 1.47-.004.812-.211 1.516-.621 2.112-.406.591-.993 1.05-1.762 1.379-.764.324-1.686.486-2.765.486-1.07 0-2.003-.164-2.798-.492-.79-.329-1.407-.814-1.852-1.458-.44-.647-.671-1.448-.693-2.402h2.714c.03.444.157.816.382 1.114.228.293.533.516.913.667.384.147.818.22 1.302.22.474 0 .887-.07 1.236-.207.355-.139.629-.33.823-.577a1.33 1.33 0 00.291-.848c0-.298-.088-.548-.265-.751-.173-.203-.428-.376-.764-.518a7.768 7.768 0 00-1.224-.389l-1.445-.363c-1.118-.272-2-.697-2.648-1.275-.648-.579-.97-1.358-.965-2.338-.004-.803.21-1.505.641-2.105.436-.6 1.034-1.069 1.794-1.405.76-.337 1.623-.505 2.59-.505.985 0 1.844.168 2.578.505.738.337 1.312.805 1.722 1.405.41.6.622 1.295.635 2.085h-2.688zm7.559-3.814v13.263H80.65V13.764h2.805zm2.307 13.263V13.764h2.804v10.95h5.686v2.313h-8.49zM97.08 13.764l3.206 10.077h.123l3.212-10.077h3.109l-4.573 13.263h-3.613l-4.579-13.263h3.115zm11.246 13.263V13.764h8.937v2.312h-6.133v3.16h5.673v2.312h-5.673v3.167h6.159v2.312h-8.963zm11.166 0V13.764h5.233c1.002 0 1.856.18 2.564.537.713.354 1.255.857 1.626 1.51.375.647.563 1.409.563 2.285 0 .881-.19 1.639-.57 2.273-.38.63-.93 1.114-1.651 1.451-.717.337-1.584.505-2.603.505h-3.504v-2.253h3.05c.536 0 .98-.074 1.334-.22.354-.147.618-.368.79-.661.177-.294.266-.659.266-1.095 0-.44-.089-.811-.266-1.113-.172-.303-.438-.532-.796-.687-.354-.16-.801-.24-1.341-.24h-1.891v10.97h-2.804zm7.163-6.036l3.296 6.036h-3.096l-3.225-6.036h3.025zm20.728-2.584h-2.837a2.753 2.753 0 00-.317-.978 2.497 2.497 0 00-.615-.738 2.716 2.716 0 00-.868-.466 3.322 3.322 0 00-1.055-.162c-.687 0-1.285.17-1.794.512-.51.336-.905.828-1.185 1.476-.281.643-.421 1.425-.421 2.344 0 .946.14 1.74.421 2.384.284.643.682 1.129 1.191 1.457.51.328 1.099.492 1.768.492a3.5 3.5 0 001.043-.15c.324-.098.611-.243.861-.433.25-.194.458-.43.622-.706.168-.276.285-.591.349-.945l2.837.013a5.115 5.115 0 01-.551 1.761 5.275 5.275 0 01-1.172 1.509 5.54 5.54 0 01-1.748 1.05c-.674.254-1.436.381-2.286.381-1.183 0-2.241-.267-3.174-.803-.928-.535-1.662-1.31-2.201-2.325-.536-1.014-.803-2.243-.803-3.685 0-1.446.272-2.676.816-3.691.544-1.015 1.282-1.787 2.214-2.318.933-.536 1.982-.803 3.148-.803.768 0 1.481.107 2.137.323.66.216 1.245.531 1.755.946.509.41.924.913 1.243 1.509.324.596.531 1.278.622 2.046zm4.047 8.62h-3.004l4.578-13.263h3.614l4.572 13.263h-3.005l-3.322-10.232h-.104l-3.329 10.232zm-.187-5.213h7.097v2.189h-7.097v-2.19zm11.543 5.213V13.764h5.233c1.002 0 1.856.18 2.564.537.713.354 1.255.857 1.626 1.51.376.647.563 1.409.563 2.285 0 .881-.19 1.639-.57 2.273-.379.63-.93 1.114-1.651 1.451-.717.337-1.584.505-2.603.505h-3.504v-2.253h3.05c.536 0 .98-.074 1.334-.22.354-.147.618-.368.79-.661.177-.294.266-.659.266-1.095 0-.44-.089-.811-.266-1.113-.172-.303-.438-.532-.796-.687-.354-.16-.801-.24-1.341-.24h-1.891v10.97h-2.804zm7.163-6.036l3.296 6.036h-3.095l-3.226-6.036h3.025zm12-3.413c-.052-.522-.274-.928-.667-1.217-.393-.29-.926-.434-1.6-.434-.457 0-.844.065-1.159.194-.315.125-.557.3-.725.525a1.261 1.261 0 00-.246.764 1.09 1.09 0 00.149.622c.112.177.265.33.459.46.195.125.419.235.674.33.255.09.527.168.816.233l1.191.285a8.41 8.41 0 011.594.518c.483.216.902.481 1.256.796.354.316.628.687.822 1.114.199.428.3.918.305 1.47-.005.812-.212 1.516-.622 2.112-.406.591-.993 1.05-1.761 1.379-.765.324-1.686.486-2.766.486-1.07 0-2.003-.164-2.797-.492-.79-.329-1.408-.814-1.852-1.458-.441-.647-.672-1.448-.693-2.402h2.713c.03.444.158.816.382 1.114.229.293.533.516.913.667.384.147.818.22 1.302.22.475 0 .887-.07 1.237-.207.354-.139.628-.33.822-.577.195-.246.292-.529.292-.848 0-.298-.089-.548-.266-.751-.172-.203-.427-.376-.764-.518a7.741 7.741 0 00-1.224-.389l-1.444-.363c-1.118-.272-2.001-.697-2.649-1.275-.647-.579-.969-1.358-.965-2.338-.004-.803.21-1.505.641-2.105.436-.6 1.034-1.069 1.794-1.405.76-.337 1.624-.505 2.591-.505.984 0 1.843.168 2.577.505.738.337 1.313.805 1.723 1.405.41.6.621 1.295.634 2.085h-2.687zM74.601 49.522l-3.42-4.566h-1.223v4.566h-1.205v-9.948h1.205v4.313h.525l3.982-4.313h1.438l-4.022 4.372 4.158 5.576H74.6zm3.403 0H76.74l3.652-9.948h1.244l3.652 9.948h-1.263l-2.972-8.374h-.078l-2.972 8.373zm.466-3.886h5.09v1.068h-5.09v-1.068zm8.369 3.886v-9.948h3.36c.781 0 1.419.141 1.914.423.499.278.868.656 1.108 1.132.24.476.36 1.007.36 1.593a3.52 3.52 0 01-.36 1.598c-.237.479-.603.86-1.098 1.146-.495.282-1.13.422-1.904.422H87.81V44.82h2.37c.534 0 .963-.092 1.287-.277a1.65 1.65 0 00.705-.748c.148-.317.223-.675.223-1.073 0-.399-.075-.755-.223-1.069a1.594 1.594 0 00-.71-.738c-.327-.181-.76-.272-1.301-.272h-2.118v8.879H86.84zm8.681-9.948h1.205v8.84h3.497v-8.84h1.205v8.84h3.497v-8.84h1.204v9.948H95.52v-9.948zm13.023 9.948v-9.948h6.004v1.069h-4.799v3.36h4.488v1.07h-4.488v3.38h4.876v1.069h-6.081zm8.175 0v-9.948h3.361c.78 0 1.418.141 1.914.423a2.65 2.65 0 011.107 1.132c.24.476.359 1.007.359 1.593a3.52 3.52 0 01-.359 1.598c-.236.479-.602.86-1.098 1.146-.495.282-1.13.422-1.904.422h-2.409V44.82h2.37c.535 0 .964-.092 1.288-.277.323-.184.558-.434.704-.748.149-.317.223-.675.223-1.073 0-.399-.074-.755-.223-1.069a1.596 1.596 0 00-.709-.738c-.327-.181-.761-.272-1.302-.272h-2.118v8.879h-1.204zm8.682-9.948h1.185v7.83h.097l5.44-7.83h1.166v9.948h-1.205v-7.81h-.097l-5.421 7.81H125.4v-9.948zm10.298 9.948v-9.948h1.204v4.43h5.304v-4.43h1.205v9.948h-1.205v-4.45h-5.304v4.45h-1.204zm16.128-9.948v1.069h-4.799v8.879h-1.205v-9.948h6.004zm13.715 3.109h-1.205a2.501 2.501 0 00-1.015-1.574 2.72 2.72 0 00-.83-.408 3.324 3.324 0 00-.952-.136c-.603 0-1.148.152-1.637.457-.486.304-.873.753-1.161 1.345-.285.593-.427 1.32-.427 2.18 0 .862.142 1.59.427 2.182.288.592.675 1.04 1.161 1.345a3.033 3.033 0 001.637.457c.33 0 .647-.046.952-.136.304-.091.581-.225.83-.404a2.553 2.553 0 001.015-1.578h1.205a4.012 4.012 0 01-.496 1.365 3.72 3.72 0 01-.893 1.025c-.357.278-.756.49-1.2.636-.44.146-.912.218-1.413.218-.849 0-1.603-.207-2.264-.621-.66-.415-1.18-1.004-1.559-1.768s-.568-1.671-.568-2.72c0-1.05.189-1.956.568-2.72.379-.764.899-1.354 1.559-1.768.661-.415 1.415-.622 2.264-.622.501 0 .973.073 1.413.219.444.146.843.36 1.2.641.356.279.654.618.893 1.02.24.398.405.853.496 1.365zm1.946 6.839v-9.948h6.004v1.069h-4.799v3.36h4.488v1.07h-4.488v3.38h4.876v1.069h-6.081zm8.175 0v-9.948h3.361c.78 0 1.418.141 1.913.423.499.278.868.656 1.108 1.132a3.5 3.5 0 01.359 1.593 3.53 3.53 0 01-.359 1.598c-.237.479-.602.86-1.098 1.146-.495.282-1.13.422-1.904.422h-2.409V44.82h2.37c.535 0 .964-.092 1.287-.277a1.65 1.65 0 00.705-.748c.149-.317.223-.675.223-1.073 0-.399-.074-.755-.223-1.069a1.596 1.596 0 00-.709-.738c-.327-.181-.761-.272-1.302-.272h-2.118v8.879h-1.204zm8.682 0v-9.948h3.477c.693 0 1.265.12 1.715.36.45.236.785.555 1.005.957.22.398.33.84.33 1.326 0 .427-.076.78-.228 1.058a1.776 1.776 0 01-.592.66 2.7 2.7 0 01-.792.36v.097c.304.02.61.127.918.321.308.194.565.473.772.835.207.363.311.807.311 1.331 0 .499-.113.947-.34 1.346-.227.398-.584.714-1.073.947-.489.233-1.126.35-1.909.35h-3.594zm1.204-1.069h2.39c.787 0 1.345-.152 1.675-.457.334-.307.501-.68.501-1.117 0-.337-.086-.647-.258-.932a1.86 1.86 0 00-.733-.69c-.317-.175-.693-.262-1.127-.262h-2.448v3.458zm0-4.507h2.234c.363 0 .69-.072.982-.214a1.72 1.72 0 00.699-.602c.175-.26.262-.564.262-.913 0-.438-.152-.808-.456-1.113-.305-.307-.787-.461-1.448-.461h-2.273v3.303zm7.691-4.372h1.185v7.83h.098l5.439-7.83h1.166v9.948h-1.204v-7.81h-.098l-5.42 7.81h-1.166v-9.948zm18.303 3.109h-1.205a2.501 2.501 0 00-1.015-1.574 2.72 2.72 0 00-.83-.408 3.324 3.324 0 00-.952-.136c-.603 0-1.148.152-1.637.457-.486.304-.873.753-1.161 1.345-.285.593-.427 1.32-.427 2.18 0 .862.142 1.59.427 2.182.288.592.675 1.04 1.161 1.345a3.033 3.033 0 001.637.457c.33 0 .647-.046.952-.136.304-.091.581-.225.83-.404a2.553 2.553 0 001.015-1.578h1.205a4.012 4.012 0 01-.496 1.365 3.72 3.72 0 01-.893 1.025 3.91 3.91 0 01-1.2.636c-.44.146-.912.218-1.413.218-.849 0-1.603-.207-2.264-.621-.66-.415-1.18-1.004-1.559-1.768s-.568-1.671-.568-2.72c0-1.05.189-1.956.568-2.72.379-.764.899-1.354 1.559-1.768.661-.415 1.415-.622 2.264-.622.501 0 .973.073 1.413.219.444.146.844.36 1.2.641.356.279.654.618.893 1.02.24.398.405.853.496 1.365z" fill="#fff"/></svg>