<svg viewBox="0 0 433 433" xmlns="http://www.w3.org/2000/svg" xmlns:xlink="http://www.w3.org/1999/xlink"><style>:root&gt;svg{display:none}:root&gt;svg:target{display:block}</style><svg viewBox="0 0 47 30" id="arrowLeft" xmlns="http://www.w3.org/2000/svg"><path fill-rule="evenodd" clip-rule="evenodd" d="M46.663 15a1.666 1.666 0 00-1.666-1.666H5.692L16.181 2.848a1.669 1.669 0 00-2.36-2.36L.49 13.82a1.667 1.667 0 000 2.36l13.33 13.33a1.67 1.67 0 002.36 0 1.669 1.669 0 000-2.36L5.692 16.667h39.305A1.666 1.666 0 0046.663 15z"/></svg><svg viewBox="0 0 13 14" id="arrowPoll" xmlns="http://www.w3.org/2000/svg"><path fill-rule="evenodd" clip-rule="evenodd" d="M6.5 13.713a.857.857 0 01-.857-.857V2.927l-3.679 3.68A.858.858 0 11.751 5.394L5.893.252a.857.857 0 011.213 0l5.142 5.142a.857.857 0 11-1.213 1.213l-3.679-3.68v9.93a.857.857 0 01-.856.856z"/></svg><svg viewBox="0 0 47 30" id="arrowRight" xmlns="http://www.w3.org/2000/svg"><path fill-rule="evenodd" clip-rule="evenodd" d="M0 15a1.666 1.666 0 001.666 1.666h39.305L30.482 27.152a1.669 1.669 0 002.36 2.36L46.173 16.18a1.666 1.666 0 000-2.36L32.843.49a1.667 1.667 0 10-2.36 2.36l10.489 10.485H1.666A1.666 1.666 0 000 15z"/></svg><svg viewBox="0 0 28 17" id="car-arrowLeft" xmlns="http://www.w3.org/2000/svg"><path fill-rule="evenodd" clip-rule="evenodd" d="M27.2 8.6a.852.852 0 00-.284-.628 1.019 1.019 0 00-.687-.26H3.318l6.114-5.593a.853.853 0 00.285-.63.853.853 0 00-.285-.628A1.02 1.02 0 008.744.6a1.02 1.02 0 00-.688.26L.286 7.97a.888.888 0 00-.212.29.824.824 0 000 .68c.05.109.12.207.211.29l7.771 7.11a1.043 1.043 0 001.376 0 .853.853 0 00.285-.63.853.853 0 00-.285-.63L3.318 9.49h22.91c.258 0 .505-.094.688-.26a.852.852 0 00.284-.63z"/></svg><svg viewBox="0 0 28 17" id="car-arrowRight" xmlns="http://www.w3.org/2000/svg"><path fill-rule="evenodd" clip-rule="evenodd" d="M.8 8.4c0 .236.102.462.285.628.182.167.429.26.686.26h22.911l-6.114 5.593a.853.853 0 00-.285.63c0 .235.103.462.285.628.183.167.43.261.688.261.258 0 .505-.094.688-.26l7.77-7.11a.887.887 0 00.212-.29.823.823 0 000-.68.886.886 0 00-.211-.29L19.944.66a.983.983 0 00-.316-.192A1.052 1.052 0 0019.256.4a1.02 1.02 0 00-.688.26.853.853 0 00-.285.63c0 .236.103.462.285.63l6.114 5.591H1.772c-.258 0-.505.094-.687.26A.852.852 0 00.8 8.4z"/></svg><svg viewBox="0 0 361 38" id="decorReviews" xmlns="http://www.w3.org/2000/svg"><g clip-path="url(#fclip0_302_114)"><path d="M335.901 21.156c4.8-2.306 8.9-6.517 8.6-12.233-.3-4.912-4.9-10.427-10.3-8.622-5.4 1.805-3.8 9.324 1.3 10.227 2.1.4 4.6-.802 4-3.209-.5-2.105-2.5-2.807-3.9-1.002-.4.5.5 1.203.9.802.4-.301.9-.301 1.3.1.2.3.3.602.2.902-.5.802-1.3 1.204-2.2 1.103-2-.2-3.5-2.005-3.3-4.01v-.301c.4-2.607 3.3-3.81 5.7-3.008 5.7 1.805 5.1 9.325 2.2 13.235-1.7 2.105-3.9 3.71-6.4 4.712-6.4-4.11-14.9-3.91-21.7-1.002-.3.1-.2.4 0 .701 0 .1.1.201.1.301 2 2.306 5.6 3.108 8.5 3.51 3.7.5 7.5.2 11.2-.803.8-.2 1.6-.501 2.3-.802 1.4 1.103 2.5 2.507 3.4 4.01 1.4 2.106 1.6 4.713.7 7.02-1 2.205-3.5 4.01-6 3.308-1.9-.501-3-2.507-2.5-4.412.3-1.002 1-1.804 2-2.306 1.2-.601 3.1-.3 3.1 1.404 0 .902-.8 2.005-1.9 1.003-.4-.301-1.4-.301-1.1.4.4 1.404 1.9 2.106 3.2 1.705.3-.1.6-.3.9-.501 1.2-1.003 1-2.807.3-4.01-2.7-4.513-8.9-1.104-8.5 3.508.5 6.016 8.7 6.518 11.7 2.206 3.4-4.712.2-10.527-3.8-13.936zm-8.3.4c-2.5.402-5 .402-7.4 0-2-.5-3.9-1.202-5.8-2.105 5.9-1.404 12.9-1.905 18.1 1.003-1.5.501-3.2.902-4.9 1.103z"/><path d="M359.7 20.053c-4.4-1.304-8.8-.301-13.2-.1 1.3-.702 2.5-1.505 3.6-2.507 1.4-1.203 3.7-3.008 2.4-4.913-.2-.3-.6-.501-1-.401-4.2 1.003-8.6 5.113-10.9 8.623-.1.1-.1.3 0 .5v.101c.4 5.013 5.8 8.924 10.3 10.027.6.1 1-.1.9-.802-.6-3.209-2.5-5.916-5.2-7.72h6.1c2.6.1 5.1-.402 7.5-1.304.9-.2 0-1.304-.5-1.504zm-8.8-5.816c-1.1 1.204-2.3 2.206-3.6 3.209-1.1.802-2.4 1.404-3.7 1.905 2.1-2.206 4.5-4.01 7.3-5.113zm-1.2 15.24c-3.3-1.203-5.3-3.509-7-6.517 3.4.702 6 3.209 7 6.518zm1.6-8.221c1.3-.1 2.7-.2 4-.2-1.4.2-2.7.2-4 .2zM20.9 35.193c3 4.311 11.1 3.81 11.7-2.206.4-4.612-5.8-8.021-8.5-3.51-.7 1.204-.9 3.009.3 4.011 1.1.903 2.7.802 3.6-.3.2-.302.4-.602.5-.903.3-.702-.8-.802-1.1-.401-1.1 1.002-1.9-.1-1.9-1.003 0-1.604 1.9-2.005 3.1-1.403 1.8.802 2.6 2.907 1.8 4.712-.4 1.003-1.3 1.705-2.3 2.005-2.5.702-5-1.103-6-3.309-.9-2.306-.7-4.912.7-7.018.9-1.504 2-2.908 3.4-4.01.8.3 1.5.601 2.3.802 3.6 1.002 7.4 1.303 11.2.802 2.8-.401 6.5-1.304 8.4-3.51.1-.1.1-.2.2-.3.2-.2.3-.502 0-.702-6.8-3.008-15.3-3.209-21.7 1.003-2.5-1.003-4.7-2.607-6.3-4.713-2.9-3.81-3.5-11.43 2.2-13.235 2.4-.802 5.3.401 5.7 3.008.3 2.005-1 3.91-3 4.211h-.3c-.9.1-1.7-.3-2.2-1.103-.2-.501 0-1.002.5-1.203.3-.1.7-.1.9.2.4.402 1.3-.3.9-.801-1.3-1.805-3.4-1.103-3.8 1.002-.6 2.507 1.9 3.61 4 3.209 5-.903 6.5-8.422 1.3-10.227C21.3-1.504 16.3 4.11 16 9.024c-.3 5.715 3.8 9.926 8.6 12.232-3.9 3.309-7.1 9.124-3.7 13.937zm7.1-14.84c5.3-2.907 12.2-2.406 18.1-1.002-1.9.902-3.8 1.604-5.8 2.105-2.5.402-5 .402-7.4 0-1.6-.2-3.3-.5-4.9-1.102z"/><path d="M.3 21.657c2.4.902 5 1.404 7.5 1.303 2 .1 4.1.1 6.1 0-2.7 1.805-4.5 4.613-5.2 7.72-.1.602.3.903.9.803 4.5-1.103 9.9-5.114 10.3-10.027v-.1c.1-.1.1-.3 0-.501-2.3-3.51-6.7-7.62-10.9-8.623-.4 0-.8.1-1 .401-1.3 1.905 1 3.71 2.4 4.913 1.1 1.003 2.3 1.805 3.6 2.507-4.3-.301-8.7-1.203-13.1 0-.4.2-1.4 1.303-.6 1.604zM17 19.351c-1.3-.501-2.5-1.103-3.7-1.905-1.3-.902-2.5-2.005-3.7-3.108 2.8 1.002 5.3 2.807 7.4 5.013zm.8 3.61c-1.7 3.007-3.7 5.313-7 6.517 1-3.31 3.7-5.816 7-6.518zM5.4 21.054c1.3 0 2.7.1 4 .2-1.4 0-2.7 0-4-.2zm51.8-.299c31.4.701 62.901.2 94.301.2l90.5.1h54.2c1.3 0 .5-1.804-.5-1.804h-.3c-1.3 0-.5 1.804.5 1.804 2.7 0 5.3 0 8-.1 1.3 0 .3-2.005-.8-1.504.3-.1.4-.1.1-.1-1.2 0-.4 1.604.4 1.604.2 0 .2 0 0 0 1.2.401.9-1.504-.2-1.504-2.7-.1-5.4-.1-8-.1-1.3 0-.5 1.805.5 1.805h.3c1.3 0 .5-1.805-.5-1.805-61.6 0-123.2 0-184.7.1-18.1 0-36.1-.2-54.2.2-.8-.1-.3 1.104.4 1.104z"/></g><defs><clipPath id="fclip0_302_114"><path d="M0 0h360.6v38H0z"/></clipPath></defs></svg><svg viewBox="0 0 433 433" id="favicon" xmlns="http://www.w3.org/2000/svg"><path d="M216.5 0l187.495 108.25v216.5L216.5 433 29.006 324.75v-216.5L216.5 0z"/><path d="M204.982 129.929c-25.111.261-53.831.729-58.237.938l-3.235.182-2.115 2.238c-2.365 2.525-6.496 7.679-15.306 19.028-3.285 4.217-8.138 10.413-10.826 13.77-2.663 3.358-5.301 6.638-5.824 7.341l-.995 1.223-1.27-2.629c-1.891-3.878-5.649-10.151-7.068-11.713-1.294-1.484-3.36-2.187-6.993-2.421-5.326-.364-13.663 1.38-18.019 3.748-1.767.963-3.11 2.447-4.206 4.582-.672 1.379-.722 3.956-.1 5.57.598 1.536 1.967 3.722 3.186 5.128 2.215 2.525 6.147 3.202 19.736 3.462l8.935.182-3.086 2.681c-1.693 1.484-6.023 5.102-9.632 8.044-8.138 6.637-8.362 6.846-8.86 8.668-1.269 4.633-1.642 12.859-1.866 41.362-.224 25.588-.2 26.082.945 28.789l-.503-1.366v10.607c-.1 3.254.124 8.037 0 10.874l1.275 4.77 2.265 3.749 2.264 3.774h29.866l1.792-1.562 1.817-1.562.174-7.626c.249-11.141.672-15.671 1.593-16.842.398-.521.523-.521 3.908-.26 42.906 3.227 58.062 4.06 86.608 4.685 33.997.729 70.307-.338 101.964-3.045l1.942-.157.348.885c.523 1.302.846 4.139 1.145 10.126.622 12.156.796 13.354 2.09 14.135.623.364 20.433.598 26.406.312l3.733-.208 2.041-2.265 2.041-2.265.274-11.14c.199-8.278.373-11.532.647-12.599.448-1.77.472-8.148.099-26.837-.672-33.657-.746-38.421-.746-42.976v-4.868l-.797-.833c-.448-.442-3.011-2.603-5.674-4.763-4.853-3.957-8.313-7.003-11.573-10.178l-1.742-1.692 5.351-.026c7.889 0 14.882-.651 18.815-1.718 2.663-.703 3.932-1.536 5.326-3.436 3.534-4.894 3.832-8.2 1.12-11.818-1.369-1.848-2.912-2.785-6.347-3.957-4.604-1.561-7.74-2.082-12.692-2.108-4.953 0-6.496.338-8.213 1.77-.548.469-3.485 3.748-6.496 7.341-3.036 3.566-5.6 6.533-5.699 6.585-.1.052-1.916-2.369-4.007-5.336-13.987-19.887-23.917-33.189-27.327-36.651-1.194-1.197-1.393-1.301-2.961-1.483-2.514-.313-61.696-.443-85.29-.209zm103.134 27.957l16.998 23.271 1.917 1.249c10.328 6.768 20.109 14.499 21.652 17.102.274.469.572 1.614.697 2.551l.224 1.718-3.733.417c-3.858.442-8.786 1.379-12.096 2.29-14.858 4.113-24.539 9.319-31.408 16.842-2.812 3.124-5.824 7.783-5.326 8.304.398.442 6.023.937 10.727.937 7.118.026 11.871-.729 18.043-2.838 7.939-2.707 15.729-7.939 19.512-13.093 1.369-1.874 1.817-2.811 2.165-4.503.324-1.588.797-2.629 1.618-3.67.423-.521.647-.625.722-.391.323.911.622 19.054.622 36.911v19.939l-.797.495c-1.543.911-3.733 2.811-5.649 4.842l-1.891 2.056-1.867.26c-8.113 1.12-26.331 1.9-56.121 2.369-21.702.338-89.272.156-98.182-.26-3.21-.13-8.586-.391-11.946-.547-19.91-.911-41.686-2.577-61.97-4.711-14.758-1.536-24.14-2.734-24.14-3.072 0-.078-1.07-2.213-2.365-4.711l-2.364-4.556v-19.262c0-17.362.274-31.497.622-31.835.398-.443 3.186 1.9 4.106 3.436.274.468.623 1.484.772 2.264.498 2.473 1.618 4.295 4.455 7.263 6.396 6.69 15.604 11.167 26.629 12.937 3.908.625 12.345.625 16.675 0 1.692-.26 3.136-.495 3.186-.547.124-.156-.921-2.238-1.941-3.8-4.356-6.664-12.444-12.859-21.902-16.738-8.76-3.618-19.088-6.143-27.5-6.741-2.315-.157-4.256-.313-4.306-.339-.15-.104.548-2.915.896-3.644 1.17-2.395 3.733-4.607 11.872-10.23 9.581-6.612 9.805-6.82 13.937-12.156 4.579-5.961 12.07-14.993 26.704-32.225l8.785-10.334 18.591-.027c10.229-.026 32.304-.13 49.078-.208 16.775-.104 41.015-.208 53.882-.234l23.394-.052 17.023 23.271z"/><path d="M217.977 139.372c-42.06.365-66.852-.748-70.361.189-1.494.416-7.541 7.106-20.732 22.958-8.287 9.97-14.858 18.013-14.858 18.196 0 2.056 69.263 6.729 169.759 4.49 0 0 29.101.156 35.389-2.167 6.289-2.323 2.614-3.547 2.614-3.547l-2.614-4.061c-15.156-20.746-26.283-33.819-29.27-36.058h-23.309s-34.224-.104-46.618 0zm-26.231 82.21c-11.523.338-20.507 1.041-25.634 1.952-5.052.911-4.082 1.067 17.869 3.097 21.826 2.005 27.874 2.734 30.96 3.645 1.294.39 1.319.416 2.29 2.551.547 1.171 1.468 3.722 2.041 5.648.796 2.629 1.095 3.358 1.244 2.994.124-.287.722-1.927 1.369-3.645 1.244-3.384 2.513-5.987 3.285-6.715.722-.677.348-.625 30.288-3.957 12.095-1.354 20.059-2.369 21.154-2.681l.747-.234-.747-.157c-1.518-.338-9.532-1.015-17.296-1.483-18.965-1.12-49.079-1.588-67.57-1.015z"/></svg><svg viewBox="0 0 80 80" id="playVideoBtn" xmlns="http://www.w3.org/2000/svg"><path d="M40 0C17.91 0 0 17.91 0 40s17.91 40 40 40 40-17.91 40-40S62.09 0 40 0zm12.866 40.616l-19.5 14.188a.716.716 0 01-1.134-.58V25.865a.715.715 0 011.134-.58l19.5 14.178a.705.705 0 010 1.152z"/></svg></svg>